<?xml version="1.0" encoding="UTF-8"?>
<svg id="Layer_1" xmlns="http://www.w3.org/2000/svg" version="1.1" viewBox="0 0 74 26">
  <!-- Generator: Adobe Illustrator 29.5.0, SVG Export Plug-In . SVG Version: 2.1.0 Build 137)  -->
  <defs>
    <style>
      .st0 {
        fill: #fff;
      }

      .st1 {
        fill: #ffc91f;
      }
    </style>
  </defs>
  <path class="st0" d="M.33,4.28h12.65v3.13H.33v-3.13ZM5.03,5.7h3.25v15.84h-3.25V5.7Z"/>
  <path class="st0" d="M14.88,4.28h3.25v17.25h-3.25V4.28ZM16.83,14.8l6.92-10.51h4.09l-10.6,14.74-.42-4.22ZM19.71,12.8l2.8-1.77,6.06,10.5h-3.86l-5.01-8.73Z"/>
  <path class="st0" d="M32.4,20.96c-.94-.5-1.66-1.23-2.15-2.2-.49-.96-.74-2.12-.74-3.47V4.28h3.25v11.1c0,.99.27,1.76.79,2.3s1.28.82,2.24.82,1.73-.27,2.26-.82.8-1.31.8-2.3V4.28h3.25v11.01c0,1.35-.25,2.51-.74,3.47s-1.21,1.69-2.16,2.2c-.95.5-2.08.75-3.41.75s-2.46-.25-3.41-.75Z"/>
  <path class="st0" d="M45.44,4.28h3.25v17.25h-3.25V4.28ZM46.62,4.28h10.38v3.13h-10.38v-3.13ZM46.62,11.4h9.08v3.13h-9.08v-3.13ZM46.62,18.41h10.38v3.13h-10.38v-3.13Z"/>
  <path class="st0" d="M58.07,4.28h12.65v3.13h-12.65v-3.13ZM62.77,5.7h3.25v15.84h-3.25V5.7Z"/>
  <path class="st1" d="M70.42,18.29h3.25v3.25h-3.25v-3.25Z"/>
</svg>